#!OML:ASF E:\motion texture\Top Level 1\Subject 1\Session 1\male.ASF
:FULLY-SPECIFIED
:DEGREES
301
root 15.6387 16.2616 30.7063 23.0937 -55.135 -3.10915
lowerback 13.7178 8.93318 -3.37928
upperback 6.96527 10.9857 -2.89222
thorax -0.255463 5.33574 -2.65761
lowerneck -6.3045 -13.3778 -14.1626
upperneck -1.99906 -17.7133 22.8051
head 3.93716 -8.55155 7.93288
rclavicle 8.8658e-014 -1.20066e-013
rhumerus -5.27951 43.4758 -106.7
rradius 63.7901
rwrist -11.0628
rhand -28.1336 -27.4614
rfingers 7.12502
rthumb -1.51498 -57.4358
lclavicle 8.8658e-014 -1.20066e-013
lhumerus -39.3349 -15.5494 82.4156
lradius 93.4998
lwrist 45.3705
lhand 7.05501 24.8625
lfingers 7.12502
lthumb 32.3281 52.0021
rfemur -24.3893 -10.0193 42.2025
rtibia 51.7005
rfoot 23.2454 15.2723
rtoes 33.776
lfemur -62.6583 -3.95272 -9.58778
ltibia 30.0006
lfoot -0.843173 -2.20161
ltoes -25.1217
302
root 15.4544 16.1875 30.8087 23.3634 -55.2927 -3.17802
lowerback 13.0108 9.10206 -3.42091
upperback 6.72515 11.2656 -2.76852
thorax -0.16642 5.48049 -2.45899
lowerneck -5.8279 -13.5771 -14.2456
upperneck -2.53255 -17.9629 23.045
head 3.78382 -8.72243 8.0232
rclavicle -9.46215e-014 4.25399e-014
rhumerus -6.51789 41.6513 -107.154
rradius 64.9212
rwrist -13.6668
rhand -27.5175 -26.4874
rfingers 7.12502
rthumb -0.919859 -56.4652
lclavicle -9.46215e-014 4.25399e-014
lhumerus -40.7972 -16.4733 83.3398
lradius 94.5913
lwrist 45.3291
lhand 7.00421 24.8056
lfingers 7.12502
lthumb 32.2797 51.955
rfemur -24.5818 -10.1131 41.8183
rtibia 52.2324
rfoot 26.8009 14.3282
rtoes 29.7424
lfemur -64.1601 -6.18905 -7.28045
ltibia 32.0913
lfoot 2.08797 -2.41306
ltoes -25.8503
303
root 15.2525 16.1144 30.8932 22.9316 -55.5819 -2.62342
lowerback 12.4743 9.29488 -4.01664
upperback 6.57251 11.4973 -2.70792
thorax -0.166122 5.5843 -2.05282
lowerneck -5.68339 -13.735 -13.7816
upperneck -2.99105 -18.138 22.8306
head 3.58814 -8.8424 7.88041
rclavicle 1.59028e-014 -1.47101e-014
rhumerus -7.4244 40.0378 -107.436
rradius 65.8551
rwrist -15.8753
rhand -26.9055 -25.8652
rfingers 7.12502
rthumb -0.328806 -55.8447
lclavicle 1.59028e-014 -1.47101e-014
lhumerus -42.1091 -17.3009 84.2952
lradius 95.5208
lwrist 44.8088
lhand 6.76855 24.5544
lfingers 7.12502
lthumb 32.0554 51.7492
rfemur -24.6265 -10.1361 41.0689
rtibia 52.793
rfoot 30.7329 13.3431
rtoes 29.3104
lfemur -65.5758 -7.732 -5.83861
ltibia 34.8295
lfoot 4.46877 -3.53227
ltoes -18.5531
304
root 15.0595 16.0417 30.9788 22.4955 -56.082 -1.84356
lowerback 11.8696 9.43017 -4.81128
upperback 6.27623 11.6394 -2.77199
thorax -0.295218 5.64491 -1.6633
lowerneck -5.41926 -13.8315 -13.6585
upperneck -3.30815 -18.2583 22.8787
head 3.46751 -8.93172 7.88441
rclavicle -1.63003e-013 6.40087e-014
rhumerus -8.31226 38.9772 -107.814
rradius 66.5493
rwrist -18.8842
rhand -26.4677 -25.2351
rfingers 7.12502
rthumb 0.093991 -55.2149
lclavicle -1.63003e-013 6.40087e-014
lhumerus -43.5754 -17.9447 85.1653
lradius 96.4538
lwrist 44.1303
lhand 6.48391 24.39
lfingers 7.12502
lthumb 31.7843 51.639
rfemur -25.1926 -9.99237 40.1829
rtibia 54.0249
rfoot 32.9542 12.2865
rtoes 28.8831
lfemur -67.2303 -8.43603 -5.56643
ltibia 38.189
lfoot 4.70423 -2.97938
ltoes -14.0451
305
root 14.8616 15.9771 31.0598 21.994 -56.5199 -1.26069
lowerback 11.1988 9.51894 -5.41922
upperback 6.43301 11.7641 -2.59702
thorax 0.0720009 5.68395 -1.06879
lowerneck -5.88573 -14.1511 -13.8141
upperneck -3.62452 -18.5895 22.7162
head 3.50597 -9.08173 7.7816
rclavicle 1.43125e-014 1.59028e-015
rhumerus -8.53694 38.6573 -107.278
rradius 66.6864
rwrist -21.2876
rhand -26.283 -25.1
rfingers 7.12502
rthumb 0.272422 -55.0796
lclavicle 1.43125e-014 1.59028e-015
lhumerus -44.2422 -18.3049 86.2442
lradius 97.0879
lwrist 43.4045
lhand 6.46623 23.9542
lfingers 7.12502
lthumb 31.7675 51.2065
rfemur -25.6023 -10.1061 39.4955
rtibia 55.3867
rfoot 34.6316 11.4597
rtoes 27.678
lfemur -68.5845 -8.60451 -5.86729
ltibia 42.3939
lfoot 3.39041 -1.03921
ltoes -13.9379
306
root 14.6804 15.9265 31.1471 21.4934 -56.8542 -0.979015
lowerback 11.1663 9.48902 -5.54841
upperback 6.31359 11.7136 -2.63271
thorax -0.0525944 5.6604 -1.03966
lowerneck -5.52618 -14.114 -13.7728
upperneck -4.11649 -18.5189 22.9833
head 3.32049 -9.09018 7.90564
rclavicle 7.95139e-016 4.37326e-014
rhumerus -8.98026 38.5535 -107.095
rradius 67.0214
rwrist -23.7008
rhand -26.1109 -25.0419
rfingers 7.12502
rthumb 0.438631 -55.0212
lclavicle 7.95139e-016 4.37326e-014
lhumerus -45.1848 -18.6364 86.9362
lradius 97.617
lwrist 42.983
lhand 6.0189 23.5577
lfingers 7.12502
lthumb 31.3413 50.8935
rfemur -25.9373 -10.1437 38.8597
rtibia 57.0487
rfoot 36.1863 10.9706
rtoes 27.6614
lfemur -69.445 -8.84162 -6.08136
ltibia 46.2863
lfoot 1.22008 -1.92087
ltoes -11.3731
